<svg xmlns="http://www.w3.org/2000/svg" xmlns:xlink="http://www.w3.org/1999/xlink" width="500" zoomAndPan="magnify" viewBox="0 0 375 187.499995" height="250" preserveAspectRatio="xMidYMid meet" version="1.0"><defs><g/><clipPath id="b16a4aaefd"><path d="M 0.5 0 L 374.5 0 L 374.5 187 L 0.5 187 Z M 0.5 0 " clip-rule="nonzero"/></clipPath></defs><g clip-path="url(#b16a4aaefd)"><path fill="#ffffff" d="M 0.5 0 L 374.5 0 L 374.5 187 L 0.5 187 Z M 0.5 0 " fill-opacity="1" fill-rule="nonzero"/><path fill="#ffffff" d="M 0.5 0 L 374.5 0 L 374.5 187 L 0.5 187 Z M 0.5 0 " fill-opacity="1" fill-rule="nonzero"/></g><g fill="#f56a10" fill-opacity="1"><g transform="translate(19.824995, 130.140761)"><g><path d="M 24 -36.5625 C 27.375 -38.03125 32.648438 -39.703125 39.828125 -41.578125 C 41.390625 -42.484375 42.234375 -42.5 42.359375 -41.625 C 42.097656 -37.175781 40.492188 -33.898438 37.546875 -31.796875 L 35.890625 -30.578125 C 29.785156 -29.566406 24.847656 -28.398438 21.078125 -27.078125 C 19.648438 -22.660156 17.992188 -17.835938 16.109375 -12.609375 C 12.835938 -5.691406 10.910156 -0.773438 10.328125 2.140625 L 10.328125 3.9375 C 10.328125 4.363281 10.765625 4.804688 11.640625 5.265625 L 15.671875 5.265625 C 22.910156 3.535156 30.523438 1.3125 38.515625 -1.40625 L 39.828125 -1.40625 C 40.441406 -1.3125 40.75 -1.019531 40.75 -0.53125 L 40.75 0.78125 C 34.71875 4.25 21.003906 9.472656 -0.390625 16.453125 L -2.1875 16.453125 C -3.976562 16.453125 -5.429688 15.707031 -6.546875 14.21875 C -7.671875 12.726562 -7.726562 9.90625 -6.71875 5.75 C 3.507812 -22.75 9.375 -39.265625 10.875 -43.796875 C 12.382812 -48.328125 13.140625 -51.015625 13.140625 -51.859375 C 15.191406 -61.460938 15.335938 -66.96875 13.578125 -68.375 C 11.828125 -69.789062 11.066406 -71.078125 11.296875 -72.234375 C 11.523438 -73.390625 13.226562 -73.96875 16.40625 -73.96875 C 19.59375 -73.96875 31.734375 -74.679688 52.828125 -76.109375 C 54.941406 -77.015625 56.078125 -77.03125 56.234375 -76.15625 C 55.878906 -71.738281 53.707031 -68.457031 49.71875 -66.3125 L 47.375 -65.09375 C 39.613281 -64.15625 33.332031 -64.046875 28.53125 -64.765625 L 28.1875 -58.234375 C 28.1875 -53.585938 26.789062 -46.363281 24 -36.5625 Z M 24 -36.5625 "/></g></g></g><g fill="#f56a10" fill-opacity="1"><g transform="translate(60.240011, 130.140761)"><g><path d="M 55.75 -55.703125 L 56.671875 -55.703125 C 60.210938 -55.316406 61.007812 -52.671875 59.0625 -47.765625 C 46.53125 -29.523438 37.441406 -14.96875 31.796875 -4.09375 C 28.253906 0.582031 25.914062 3.242188 24.78125 3.890625 L 24.296875 3.890625 C 18.878906 3.890625 14.5 1.390625 11.15625 -3.609375 C 11.15625 -12.273438 10.054688 -20.148438 7.859375 -27.234375 C 5.671875 -34.328125 3.644531 -37.710938 1.78125 -37.390625 C -0.0820312 -37.066406 -1.476562 -36.910156 -2.40625 -36.921875 C -3.332031 -36.941406 -4.039062 -37.523438 -4.53125 -38.671875 C -5.019531 -39.828125 -4.71875 -40.816406 -3.625 -41.640625 C -2.539062 -42.472656 -0.976562 -42.992188 1.0625 -43.203125 C 3.113281 -43.421875 5.742188 -43.316406 8.953125 -42.890625 C 12.171875 -42.472656 14.535156 -40.769531 16.046875 -37.78125 C 17.554688 -34.789062 18.285156 -31.265625 18.234375 -27.203125 C 18.179688 -23.148438 18.46875 -19.988281 19.09375 -17.71875 L 19.53125 -17.71875 C 24.976562 -25.90625 28.46875 -31.539062 30 -34.625 C 42.132812 -48.675781 50.71875 -55.703125 55.75 -55.703125 Z M 55.75 -55.703125 "/></g></g></g><g fill="#f56a10" fill-opacity="1"><g transform="translate(110.003193, 130.140761)"><g><path d="M 17.046875 -43.53125 L 23.953125 -43.53125 C 26.421875 -42.195312 27.65625 -41.207031 27.65625 -40.5625 L 27.65625 -38.171875 C 26.613281 -32.359375 20.929688 -27.3125 10.609375 -23.03125 L 10.171875 -23.03125 L 10.171875 -21.078125 C 11.890625 -18.484375 13.890625 -17.1875 16.171875 -17.1875 L 16.609375 -17.1875 C 20.078125 -17.019531 24.925781 -19.195312 31.15625 -23.71875 L 31.546875 -22.6875 L 31.546875 -21.71875 C 25.703125 -15.78125 20.101562 -12.8125 14.75 -12.8125 C 5.851562 -14.207031 1.40625 -18.265625 1.40625 -24.984375 C 2.9375 -31.859375 5.566406 -36.742188 9.296875 -39.640625 C 12.835938 -42.234375 15.421875 -43.53125 17.046875 -43.53125 Z M 10.171875 -28.4375 L 10.171875 -27.90625 C 15.273438 -29.332031 19.125 -32.085938 21.71875 -36.171875 L 22.109375 -37.203125 L 22.109375 -37.640625 L 21.71875 -38.65625 C 14.019531 -36.1875 10.171875 -32.78125 10.171875 -28.4375 Z M 10.171875 -28.4375 "/></g></g></g><g fill="#f56a10" fill-opacity="1"><g transform="translate(136.493338, 130.140761)"><g><path d="M 10.90625 -54.734375 L 11.296875 -54.734375 C 15.867188 -54.734375 18.15625 -52.816406 18.15625 -48.984375 L 17.96875 -46.015625 C 17.28125 -42.640625 16.582031 -39.097656 15.875 -35.390625 L 16.265625 -35.390625 C 23.078125 -43.472656 29.117188 -47.238281 34.390625 -46.6875 C 39.671875 -46.132812 43.023438 -42.484375 44.453125 -35.734375 C 45.171875 -33.492188 45.640625 -31.691406 45.859375 -30.328125 C 45.859375 -30.066406 45.75 -29.9375 45.53125 -29.9375 L 45.859375 -25.609375 C 45.859375 -23.890625 45.390625 -18.242188 44.453125 -8.671875 L 44.796875 -8.671875 C 44.890625 -6.398438 47.132812 -6.144531 51.53125 -7.90625 C 55.9375 -9.675781 56.378906 -8.800781 52.859375 -5.28125 C 49.335938 -1.757812 46.066406 0 43.046875 0 C 40.023438 0 37.363281 -1.441406 35.0625 -4.328125 C 32.394531 -8.835938 31.0625 -13.171875 31.0625 -17.328125 C 31.0625 -19.671875 31.773438 -26.765625 33.203125 -38.609375 L 33.203125 -39.34375 C 29.597656 -38.101562 25.804688 -36 21.828125 -33.03125 C 17.859375 -30.0625 14.515625 -25.144531 11.796875 -18.28125 C 9.085938 -11.414062 6.988281 -7.382812 5.5 -6.1875 L 4.046875 -6.1875 C -0.628906 -5.570312 -2.078125 -9.675781 -0.296875 -18.5 C 3.472656 -33.300781 6.144531 -42.929688 7.71875 -47.390625 C 9.289062 -51.859375 10.351562 -54.304688 10.90625 -54.734375 Z M 10.90625 -54.734375 "/></g></g></g><g fill="#f56a10" fill-opacity="1"><g transform="translate(186.743401, 130.140761)"><g><path d="M 18.890625 -70.359375 L 21.671875 -70.359375 C 26.210938 -68.054688 29.148438 -65.492188 30.484375 -62.671875 L 31.5 -61.015625 L 31.5 -58.765625 L 31.015625 -52.203125 C 41.273438 -52.203125 48.398438 -53.109375 52.390625 -54.921875 L 53.859375 -55.5 C 56.128906 -56.539062 56.320312 -55.234375 54.4375 -51.578125 C 52.550781 -47.929688 48.441406 -45.382812 42.109375 -43.9375 C 35.785156 -42.5 30.96875 -42.132812 27.65625 -42.84375 C 20 -27.75 16.171875 -17.296875 16.171875 -11.484375 L 16.171875 -6.625 C 16.171875 -6.070312 16.625 -5.082031 17.53125 -3.65625 C 18.4375 -2.226562 19.984375 -1.515625 22.171875 -1.515625 C 24.367188 -1.515625 26.722656 -2.054688 29.234375 -3.140625 C 31.753906 -4.222656 34.164062 -5.738281 36.46875 -7.6875 L 37.59375 -6.03125 L 37.59375 -4.921875 C 37.59375 -2.910156 33.191406 -0.523438 24.390625 2.234375 L 21.671875 2.234375 C 14.816406 2.234375 9.671875 -2.519531 6.234375 -12.03125 L 5.109375 -17 L 5.109375 -23.03125 C 5.109375 -28.476562 6.957031 -35.8125 10.65625 -45.03125 L 10.65625 -45.578125 C 9.101562 -45.992188 6.1875 -47.097656 1.90625 -48.890625 C -3.320312 -51.609375 -6.632812 -54.171875 -8.03125 -56.578125 L -6.921875 -57.15625 C -1.171875 -55.664062 4.132812 -54.566406 9 -53.859375 L 12.3125 -53.859375 L 13.390625 -53.3125 C 15.953125 -58.800781 17.609375 -63.203125 18.359375 -66.515625 L 18.359375 -67.046875 L 17.765625 -69.78125 Z M 18.890625 -70.359375 "/></g></g></g><g fill="#5794a1" fill-opacity="1"><g transform="translate(220.200569, 130.140761)"><g><path d="M 83.890625 -79.21875 L 86.1875 -79.21875 C 90.050781 -79.707031 92.4375 -78.863281 93.34375 -76.6875 C 94.125 -75.644531 94.578125 -74.21875 94.703125 -72.40625 L 94.84375 -71.09375 C 94.976562 -69.269531 93.453125 -61.832031 90.265625 -48.78125 C 88.359375 -42.875 85.179688 -30.410156 80.734375 -11.390625 C 79.140625 -3.796875 75.242188 1.335938 69.046875 4.015625 C 62.847656 6.691406 59.765625 4.71875 59.796875 -1.90625 C 62.160156 -10.957031 65.144531 -24.734375 68.75 -43.234375 C 69.175781 -43.234375 69.304688 -44.335938 69.140625 -46.546875 C 64.984375 -40.472656 61.476562 -34.988281 58.625 -30.09375 C 51.507812 -19.445312 46.625 -13.210938 43.96875 -11.390625 C 43.832031 -11.390625 43.179688 -11.289062 42.015625 -11.09375 C 39.710938 -11.613281 37.832031 -13.175781 36.375 -15.78125 C 35.207031 -18.832031 34.507812 -21.65625 34.28125 -24.25 C 34.4375 -30.90625 34.128906 -44.632812 33.359375 -65.4375 C 32.441406 -64.851562 30.960938 -62.273438 28.921875 -57.703125 C 26.035156 -50.234375 21.003906 -31.972656 13.828125 -2.921875 C 7.722656 1.203125 2.628906 0.550781 -1.453125 -4.875 C -1.878906 -13.726562 0.695312 -27.066406 6.28125 -44.890625 C 11.25 -58.617188 15.46875 -67.789062 18.9375 -72.40625 C 20.101562 -73.695312 23.140625 -74.816406 28.046875 -75.765625 C 31.585938 -76.378906 34.234375 -75.890625 35.984375 -74.296875 C 37.734375 -72.710938 38.96875 -69.726562 39.6875 -65.34375 L 40.125 -59.796875 C 40.476562 -55.148438 40.363281 -42.878906 39.78125 -22.984375 C 40.164062 -22.109375 40.539062 -21.671875 40.90625 -21.671875 C 42.039062 -21.304688 46.0625 -26.90625 52.96875 -38.46875 C 59.007812 -48.394531 66.914062 -59.492188 76.6875 -71.765625 C 80.96875 -76.117188 83.367188 -78.601562 83.890625 -79.21875 Z M 83.890625 -79.21875 "/></g></g></g><g fill="#5794a1" fill-opacity="1"><g transform="translate(305.554958, 130.140761)"><g><path d="M 28.34375 -77.265625 L 31.203125 -77.265625 C 39.328125 -77.265625 44.894531 -76.457031 47.90625 -74.84375 C 52.96875 -73.601562 58.015625 -69.769531 63.046875 -63.34375 C 64.191406 -60.195312 64.765625 -58.054688 64.765625 -56.921875 C 64.765625 -54.222656 63.300781 -50.570312 60.375 -45.96875 C 54.988281 -41.125 45.523438 -36.628906 31.984375 -32.484375 C 25.785156 -31.304688 22.6875 -30.3125 22.6875 -29.5 C 19.25 -18.664062 16.878906 -9.9375 15.578125 -3.3125 C 14.210938 -1.164062 12.171875 0.195312 9.453125 0.78125 C 6.953125 1.457031 5.570312 0.03125 5.3125 -3.5 L 8.46875 -19.53125 C 11.257812 -29.257812 14.601562 -40.828125 18.5 -54.234375 L 20.453125 -62.5625 L 19.234375 -62.5625 C 14.171875 -61.425781 11.070312 -60.859375 9.9375 -60.859375 C 6.269531 -60.410156 3.976562 -60.1875 3.0625 -60.1875 L 2.578125 -60.1875 C 2.023438 -60.1875 0.238281 -60.332031 -2.78125 -60.625 C -4.59375 -61.625 -6.269531 -63.175781 -7.8125 -65.28125 C -9.351562 -67.394531 -9.832031 -68.945312 -9.25 -69.9375 C -8.664062 -70.925781 -7.796875 -71.421875 -6.640625 -71.421875 C -5.492188 -71.421875 1.179688 -72.96875 13.390625 -76.0625 C 18.773438 -76.863281 23.757812 -77.265625 28.34375 -77.265625 Z M 30.1875 -65.046875 C 30.1875 -59.828125 28.253906 -50.253906 24.390625 -36.328125 C 24.972656 -36.328125 25.265625 -36.257812 25.265625 -36.125 C 27.054688 -36.125 29.800781 -37.003906 33.5 -38.765625 C 35.0625 -39.085938 39.21875 -41.445312 45.96875 -45.84375 C 52.71875 -50.238281 56.09375 -54.984375 56.09375 -60.078125 L 56.09375 -62.8125 C 56.09375 -63.65625 54.46875 -64.820312 51.21875 -66.3125 C 49.082031 -66.96875 47.25 -67.441406 45.71875 -67.734375 C 37.3125 -66.523438 32.132812 -65.628906 30.1875 -65.046875 Z M 30.1875 -65.046875 "/></g></g></g></svg>