<svg xmlns="http://www.w3.org/2000/svg" xmlns:xlink="http://www.w3.org/1999/xlink" width="500" zoomAndPan="magnify" viewBox="0 0 375 187.499995" height="250" preserveAspectRatio="xMidYMid meet" version="1.0"><defs><g/><clipPath id="f1921d3a18"><path d="M 0.5 0 L 374.5 0 L 374.5 187 L 0.5 187 Z M 0.5 0 " clip-rule="nonzero"/></clipPath><clipPath id="204ff2033e"><path d="M 117.328125 38 L 130 38 L 130 69 L 117.328125 69 Z M 117.328125 38 " clip-rule="nonzero"/></clipPath><clipPath id="e01b76451c"><path d="M 210 8.226562 L 223 8.226562 L 223 69 L 210 69 Z M 210 8.226562 " clip-rule="nonzero"/></clipPath><clipPath id="27ec49c3c4"><path d="M 222 68 L 235 68 L 235 128.65625 L 222 128.65625 Z M 222 68 " clip-rule="nonzero"/></clipPath><clipPath id="496da78ea1"><path d="M 222 67 L 235 67 L 235 128.65625 L 222 128.65625 Z M 222 67 " clip-rule="nonzero"/></clipPath><clipPath id="0670204613"><path d="M 245 68 L 257.953125 68 L 257.953125 83 L 245 83 Z M 245 68 " clip-rule="nonzero"/></clipPath><clipPath id="26191278ea"><path d="M 245 67 L 257.953125 67 L 257.953125 83 L 245 83 Z M 245 67 " clip-rule="nonzero"/></clipPath></defs><g clip-path="url(#f1921d3a18)"><path fill="#ffffff" d="M 0.5 0 L 374.5 0 L 374.5 187 L 0.5 187 Z M 0.5 0 " fill-opacity="1" fill-rule="nonzero"/><path fill="#ffffff" d="M 0.5 0 L 374.5 0 L 374.5 187 L 0.5 187 Z M 0.5 0 " fill-opacity="1" fill-rule="nonzero"/></g><g clip-path="url(#204ff2033e)"><path stroke-linecap="butt" transform="matrix(0.0140206, 0, 0, 0.0140206, 117.393827, -1.82469)" fill-opacity="1" fill="#f56a10" fill-rule="evenodd" stroke-linejoin="miter" d="M 416.569953 2902.298417 C 645.864753 2902.298417 833.368278 3089.801941 833.368278 3318.818133 L 833.368278 4999.941857 L 0.050237 4999.941857 L 0.050237 3318.818133 C 0.050237 3089.801941 187.553761 2902.298417 416.569953 2902.298417 Z M 416.569953 2902.298417 " stroke="#000000" stroke-width="6.94" stroke-opacity="1" stroke-miterlimit="2.613"/></g><path stroke-linecap="butt" transform="matrix(0.0140206, 0, 0, 0.0140206, 117.393827, -1.82469)" fill-opacity="1" fill="#f56a10" fill-rule="evenodd" stroke-linejoin="miter" d="M 2083.206035 1223.960778 C 2312.500835 1223.960778 2500.00436 1411.464302 2500.00436 1640.480494 L 2500.00436 4999.941857 L 1666.686319 4999.941857 L 1666.686319 1640.480494 C 1666.686319 1411.464302 1854.189843 1223.960778 2083.206035 1223.960778 Z M 2083.206035 1223.960778 " stroke="#000000" stroke-width="6.94" stroke-opacity="1" stroke-miterlimit="2.613"/><path stroke-linecap="butt" transform="matrix(0.0140206, 0, 0, 0.0140206, 117.393827, -1.82469)" fill-opacity="1" fill="#f56a10" fill-rule="evenodd" stroke-linejoin="miter" d="M 3750.120725 3137.165387 C 3979.136917 3137.165387 4166.640441 3324.668912 4166.640441 3553.963712 L 4166.640441 4999.941857 L 3333.322401 4999.941857 L 3333.322401 3553.963712 C 3333.322401 3324.668912 3520.825925 3137.165387 3750.120725 3137.165387 Z M 3750.120725 3137.165387 " stroke="#000000" stroke-width="6.94" stroke-opacity="1" stroke-miterlimit="2.613"/><path stroke-linecap="butt" transform="matrix(0.0140206, 0, 0, 0.0140206, 117.393827, -1.82469)" fill-opacity="1" fill="#f56a10" fill-rule="evenodd" stroke-linejoin="miter" d="M 5416.756807 1953.079238 C 5645.772999 1953.079238 5833.276523 2140.582762 5833.276523 2369.877562 L 5833.276523 4999.941857 L 4999.958482 4999.941857 L 4999.958482 2369.877562 C 4999.958482 2140.582762 5187.462007 1953.079238 5416.756807 1953.079238 Z M 5416.756807 1953.079238 " stroke="#000000" stroke-width="6.94" stroke-opacity="1" stroke-miterlimit="2.613"/><g clip-path="url(#e01b76451c)"><path stroke-linecap="butt" transform="matrix(0.0140206, 0, 0, 0.0140206, 117.393827, -1.82469)" fill-opacity="1" fill="#f56a10" fill-rule="evenodd" stroke-linejoin="miter" d="M 7083.392889 720.515208 C 7312.40908 720.515208 7499.912605 908.018732 7499.912605 1137.034924 L 7499.912605 4999.941857 L 6666.594564 4999.941857 L 6666.594564 1137.034924 C 6666.594564 908.018732 6854.098088 720.515208 7083.392889 720.515208 Z M 7083.392889 720.515208 " stroke="#000000" stroke-width="6.94" stroke-opacity="1" stroke-miterlimit="2.613"/></g><path stroke-linecap="butt" transform="matrix(0.0140206, 0, 0, 0.0140206, 117.393827, -1.82469)" fill-opacity="1" fill="#f56a10" fill-rule="evenodd" stroke-linejoin="miter" d="M 8750.02897 3987.199939 C 8979.045162 3987.199939 9166.548687 4174.703463 9166.548687 4403.998263 L 9166.548687 4999.941857 L 8333.230646 4999.941857 L 8333.230646 4403.998263 C 8333.230646 4174.703463 8520.73417 3987.199939 8750.02897 3987.199939 Z M 8750.02897 3987.199939 " stroke="#000000" stroke-width="6.94" stroke-opacity="1" stroke-miterlimit="2.613"/><path stroke-linecap="butt" transform="matrix(0.0140206, 0, 0, 0.0140206, 117.393827, -1.82469)" fill-opacity="1" fill="#f56a10" fill-rule="evenodd" stroke-linejoin="miter" d="M 1249.887994 7097.863906 C 1479.182794 7097.863906 1666.686319 6910.360381 1666.686319 6681.065581 L 1666.686319 4999.941857 L 833.368278 4999.941857 L 833.368278 6681.065581 C 833.368278 6910.360381 1020.871802 7097.863906 1249.887994 7097.863906 Z M 1249.887994 7097.863906 " stroke="#000000" stroke-width="6.94" stroke-opacity="1" stroke-miterlimit="2.613"/><path stroke-linecap="butt" transform="matrix(0.0140206, 0, 0, 0.0140206, 117.393827, -1.82469)" fill-opacity="1" fill="#f56a10" fill-rule="evenodd" stroke-linejoin="miter" d="M 2916.802684 8776.201545 C 3145.818876 8776.201545 3333.322401 8588.69802 3333.322401 8359.40322 L 3333.322401 4999.941857 L 2500.00436 4999.941857 L 2500.00436 8359.40322 C 2500.00436 8588.69802 2687.507884 8776.201545 2916.802684 8776.201545 Z M 2916.802684 8776.201545 " stroke="#000000" stroke-width="6.94" stroke-opacity="1" stroke-miterlimit="2.613"/><path stroke-linecap="butt" transform="matrix(0.0140206, 0, 0, 0.0140206, 117.393827, -1.82469)" fill-opacity="1" fill="#f56a10" fill-rule="evenodd" stroke-linejoin="miter" d="M 4583.438766 6862.718327 C 4812.454958 6862.718327 4999.958482 6675.214803 4999.958482 6445.920002 L 4999.958482 4999.941857 L 4166.640441 4999.941857 L 4166.640441 6445.920002 C 4166.640441 6675.214803 4354.143966 6862.718327 4583.438766 6862.718327 Z M 4583.438766 6862.718327 " stroke="#000000" stroke-width="6.94" stroke-opacity="1" stroke-miterlimit="2.613"/><path stroke-linecap="butt" transform="matrix(0.0140206, 0, 0, 0.0140206, 117.393827, -1.82469)" fill-opacity="1" fill="#f56a10" fill-rule="evenodd" stroke-linejoin="miter" d="M 6250.074848 8046.804477 C 6479.09104 8046.804477 6666.594564 7859.300952 6666.594564 7630.28476 L 6666.594564 4999.941857 L 5833.276523 4999.941857 L 5833.276523 7630.28476 C 5833.276523 7859.300952 6020.780048 8046.804477 6250.074848 8046.804477 Z M 6250.074848 8046.804477 " stroke="#000000" stroke-width="6.94" stroke-opacity="1" stroke-miterlimit="2.613"/><g clip-path="url(#27ec49c3c4)"><path fill="#f56a10" d="M 228.390625 128.28125 C 231.601562 128.28125 234.230469 125.652344 234.230469 122.4375 L 234.230469 68.277344 L 222.546875 68.277344 L 222.546875 122.4375 C 222.546875 125.652344 225.175781 128.28125 228.390625 128.28125 Z M 228.390625 128.28125 " fill-opacity="1" fill-rule="evenodd"/></g><g clip-path="url(#496da78ea1)"><path stroke-linecap="butt" transform="matrix(0.0140206, 0, 0, 0.0140206, 117.393827, -1.82469)" fill="none" stroke-linejoin="miter" d="M 7916.71093 9279.647115 C 8145.727121 9279.647115 8333.230646 9092.14359 8333.230646 8862.84879 L 8333.230646 4999.941857 L 7499.912605 4999.941857 L 7499.912605 8862.84879 C 7499.912605 9092.14359 7687.416129 9279.647115 7916.71093 9279.647115 Z M 7916.71093 9279.647115 " stroke="#000000" stroke-width="6.94" stroke-opacity="1" stroke-miterlimit="2.613"/></g><g clip-path="url(#0670204613)"><path fill="#f56a10" d="M 251.757812 82.476562 C 254.96875 82.476562 257.597656 79.847656 257.597656 76.636719 L 257.597656 68.277344 L 245.914062 68.277344 L 245.914062 76.636719 C 245.914062 79.847656 248.542969 82.476562 251.757812 82.476562 Z M 251.757812 82.476562 " fill-opacity="1" fill-rule="evenodd"/></g><g clip-path="url(#26191278ea)"><path stroke-linecap="butt" transform="matrix(0.0140206, 0, 0, 0.0140206, 117.393827, -1.82469)" fill="none" stroke-linejoin="miter" d="M 9583.347011 6012.683776 C 9812.363203 6012.683776 9999.866728 5825.180251 9999.866728 5596.16406 L 9999.866728 4999.941857 L 9166.548687 4999.941857 L 9166.548687 5596.16406 C 9166.548687 5825.180251 9354.052211 6012.683776 9583.347011 6012.683776 Z M 9583.347011 6012.683776 " stroke="#000000" stroke-width="6.94" stroke-opacity="1" stroke-miterlimit="2.613"/></g><g fill="#f56a10" fill-opacity="1"><g transform="translate(82.298035, 166.562861)"><g><path d="M 2.84375 -19.96875 C 2.84375 -22.082031 2.796875 -23.835938 2.703125 -25.234375 C 2.609375 -26.628906 2.265625 -27.566406 1.671875 -28.046875 C 2.753906 -29.421875 3.773438 -30.367188 4.734375 -30.890625 C 5.703125 -31.410156 6.820312 -31.671875 8.09375 -31.671875 L 21.578125 -31.671875 C 21.984375 -31.671875 22.351562 -31.726562 22.6875 -31.84375 C 23.03125 -31.957031 23.382812 -32.160156 23.75 -32.453125 C 25.019531 -31.972656 26.035156 -31.367188 26.796875 -30.640625 C 27.554688 -29.921875 27.9375 -29.019531 27.9375 -27.9375 C 27.9375 -26.488281 27.535156 -25.351562 26.734375 -24.53125 C 25.941406 -23.71875 24.875 -23.3125 23.53125 -23.3125 L 12.609375 -23.3125 L 12.609375 -19.6875 L 17.953125 -19.6875 C 18.441406 -19.6875 18.898438 -19.710938 19.328125 -19.765625 C 19.753906 -19.828125 20.132812 -19.945312 20.46875 -20.125 C 21.65625 -19.644531 22.59375 -19.113281 23.28125 -18.53125 C 23.96875 -17.957031 24.3125 -17.078125 24.3125 -15.890625 C 24.3125 -14.484375 23.910156 -13.378906 23.109375 -12.578125 C 22.316406 -11.773438 21.269531 -11.375 19.96875 -11.375 L 12.609375 -11.375 L 12.609375 -7.96875 L 21.578125 -7.96875 C 22.097656 -7.96875 22.582031 -7.976562 23.03125 -8 C 23.476562 -8.019531 23.890625 -8.085938 24.265625 -8.203125 C 25.453125 -7.753906 26.359375 -7.269531 26.984375 -6.75 C 27.617188 -6.226562 27.9375 -5.390625 27.9375 -4.234375 C 27.9375 -2.742188 27.535156 -1.664062 26.734375 -1 C 25.941406 -0.332031 24.875 0 23.53125 0 L 7.3125 0 C 6.039062 0 4.976562 -0.210938 4.125 -0.640625 C 3.269531 -1.066406 2.84375 -1.910156 2.84375 -3.171875 Z M 2.84375 -19.96875 "/></g></g></g><g fill="#f56a10" fill-opacity="1"><g transform="translate(110.790582, 166.562861)"><g><path d="M 4.1875 -12.09375 C 4.070312 -12.46875 3.828125 -12.960938 3.453125 -13.578125 C 3.085938 -14.191406 2.648438 -14.773438 2.140625 -15.328125 C 1.640625 -15.890625 1.113281 -16.242188 0.5625 -16.390625 C 1.601562 -18.023438 2.671875 -19.421875 3.765625 -20.578125 C 4.859375 -21.734375 6.128906 -22.3125 7.578125 -22.3125 C 8.398438 -22.3125 9.132812 -22.160156 9.78125 -21.859375 C 10.4375 -21.554688 10.929688 -21.109375 11.265625 -20.515625 C 12.117188 -19.035156 12.726562 -17.503906 13.09375 -15.921875 C 13.46875 -14.335938 13.878906 -12.84375 14.328125 -11.4375 C 14.484375 -10.84375 14.632812 -10.289062 14.78125 -9.78125 C 14.925781 -9.28125 15.070312 -8.804688 15.21875 -8.359375 L 16.953125 -14.828125 C 17.023438 -15.203125 17.097656 -15.570312 17.171875 -15.9375 C 17.242188 -16.3125 17.300781 -16.742188 17.34375 -17.234375 C 17.300781 -17.421875 17.207031 -17.734375 17.0625 -18.171875 C 16.914062 -18.617188 16.617188 -19.03125 16.171875 -19.40625 C 17.171875 -20.1875 18.226562 -20.863281 19.34375 -21.4375 C 20.46875 -22.019531 21.507812 -22.3125 22.46875 -22.3125 C 23.03125 -22.3125 23.515625 -22.234375 23.921875 -22.078125 C 24.921875 -21.816406 25.765625 -21.273438 26.453125 -20.453125 C 27.148438 -19.640625 27.5 -18.695312 27.5 -17.625 C 27.382812 -16.726562 27.253906 -15.984375 27.109375 -15.390625 C 26.503906 -13.535156 25.941406 -11.660156 25.421875 -9.765625 C 24.898438 -7.867188 24.382812 -5.988281 23.875 -4.125 C 23.425781 -2.863281 22.671875 -1.914062 21.609375 -1.28125 C 20.546875 -0.644531 19.390625 -0.222656 18.140625 -0.015625 C 16.898438 0.179688 15.796875 0.28125 14.828125 0.28125 C 14.273438 0.28125 13.609375 0.25 12.828125 0.1875 C 12.046875 0.132812 11.234375 -0.0195312 10.390625 -0.28125 C 9.554688 -0.539062 8.796875 -0.976562 8.109375 -1.59375 C 7.421875 -2.207031 6.910156 -3.050781 6.578125 -4.125 Z M 4.1875 -12.09375 "/></g></g></g><g fill="#f56a10" fill-opacity="1"><g transform="translate(138.837065, 166.562861)"><g><path d="M 19.015625 -8.640625 C 20.316406 -8.640625 21.234375 -8.414062 21.765625 -7.96875 C 22.304688 -7.53125 22.578125 -6.710938 22.578125 -5.515625 C 22.578125 -3.773438 22.125 -2.492188 21.21875 -1.671875 C 20.3125 -0.859375 19.140625 -0.328125 17.703125 -0.078125 C 16.273438 0.160156 14.796875 0.28125 13.265625 0.28125 C 10.773438 0.28125 8.617188 -0.078125 6.796875 -0.796875 C 4.984375 -1.523438 3.582031 -2.726562 2.59375 -4.40625 C 1.601562 -6.082031 1.109375 -8.332031 1.109375 -11.15625 C 1.109375 -15.425781 2.128906 -18.394531 4.171875 -20.0625 C 6.222656 -21.738281 9.144531 -22.578125 12.9375 -22.578125 C 14.050781 -22.578125 15.210938 -22.492188 16.421875 -22.328125 C 17.628906 -22.160156 18.742188 -21.875 19.765625 -21.46875 C 20.785156 -21.0625 21.613281 -20.472656 22.25 -19.703125 C 22.882812 -18.941406 23.203125 -17.96875 23.203125 -16.78125 C 23.203125 -15.113281 22.753906 -13.679688 21.859375 -12.484375 C 20.960938 -11.296875 19.828125 -10.382812 18.453125 -9.75 C 17.078125 -9.125 15.648438 -8.8125 14.171875 -8.8125 C 13.492188 -8.8125 12.847656 -8.816406 12.234375 -8.828125 C 11.628906 -8.847656 11.066406 -8.9375 10.546875 -9.09375 C 10.546875 -8.164062 10.710938 -7.550781 11.046875 -7.25 C 11.378906 -6.945312 11.84375 -6.796875 12.4375 -6.796875 L 14.28125 -6.796875 C 14.570312 -6.796875 15.039062 -6.816406 15.6875 -6.859375 C 16.34375 -6.898438 16.941406 -7.007812 17.484375 -7.1875 C 18.023438 -7.375 18.296875 -7.65625 18.296875 -8.03125 C 18.296875 -8.4375 18.535156 -8.640625 19.015625 -8.640625 Z M 12.546875 -16.34375 C 11.878906 -16.34375 11.285156 -16.203125 10.765625 -15.921875 C 10.242188 -15.640625 9.890625 -15 9.703125 -14 C 10.335938 -14.03125 11.015625 -14.066406 11.734375 -14.109375 C 12.460938 -14.148438 13.09375 -14.253906 13.625 -14.421875 C 14.164062 -14.585938 14.4375 -14.835938 14.4375 -15.171875 C 14.4375 -15.617188 14.332031 -15.925781 14.125 -16.09375 C 13.925781 -16.257812 13.398438 -16.34375 12.546875 -16.34375 Z M 12.546875 -16.34375 "/></g></g></g><g fill="#f56a10" fill-opacity="1"><g transform="translate(163.259247, 166.562861)"><g><path d="M 7.703125 -22.3125 C 8.515625 -22.3125 9.289062 -22.113281 10.03125 -21.71875 C 10.78125 -21.332031 11.378906 -20.800781 11.828125 -20.125 C 12.640625 -20.945312 13.53125 -21.523438 14.5 -21.859375 C 15.46875 -22.191406 16.367188 -22.394531 17.203125 -22.46875 C 18.035156 -22.539062 18.660156 -22.578125 19.078125 -22.578125 C 20.628906 -22.578125 21.90625 -22.175781 22.90625 -21.375 C 23.914062 -20.582031 24.671875 -19.582031 25.171875 -18.375 C 25.679688 -17.164062 25.9375 -15.929688 25.9375 -14.671875 C 25.9375 -14.222656 25.925781 -13.753906 25.90625 -13.265625 C 25.882812 -12.785156 25.875 -12.285156 25.875 -11.765625 L 25.875 -8.921875 C 25.875 -8.546875 25.890625 -8.015625 25.921875 -7.328125 C 25.960938 -6.640625 26.019531 -6.113281 26.09375 -5.75 C 26.132812 -5.488281 26.332031 -5.171875 26.6875 -4.796875 C 27.039062 -4.421875 27.421875 -4.066406 27.828125 -3.734375 C 26.785156 -2.398438 25.675781 -1.441406 24.5 -0.859375 C 23.332031 -0.285156 22.132812 0 20.90625 0 C 19.789062 0 18.769531 -0.34375 17.84375 -1.03125 C 16.914062 -1.71875 16.378906 -2.617188 16.234375 -3.734375 C 16.191406 -4.066406 16.160156 -4.445312 16.140625 -4.875 C 16.117188 -5.300781 16.109375 -5.703125 16.109375 -6.078125 C 16.109375 -6.597656 16.117188 -7.082031 16.140625 -7.53125 C 16.160156 -7.976562 16.171875 -8.40625 16.171875 -8.8125 C 16.210938 -9.257812 16.234375 -9.734375 16.234375 -10.234375 C 16.234375 -10.734375 16.234375 -11.300781 16.234375 -11.9375 C 16.234375 -12.675781 16.109375 -13.1875 15.859375 -13.46875 C 15.617188 -13.75 15.273438 -13.890625 14.828125 -13.890625 C 13.898438 -13.890625 13.273438 -13.515625 12.953125 -12.765625 C 12.640625 -12.023438 12.484375 -11.359375 12.484375 -10.765625 C 12.453125 -10.578125 12.4375 -10.296875 12.4375 -9.921875 C 12.4375 -9.554688 12.4375 -9.28125 12.4375 -9.09375 L 12.4375 -1.0625 C 11.507812 -0.613281 10.632812 -0.320312 9.8125 -0.1875 C 9 -0.0625 8.21875 0 7.46875 0 C 6.320312 0 5.289062 -0.203125 4.375 -0.609375 C 3.46875 -1.023438 2.898438 -2.007812 2.671875 -3.5625 C 2.671875 -4.457031 2.679688 -5.082031 2.703125 -5.4375 C 2.722656 -5.789062 2.734375 -6.039062 2.734375 -6.1875 L 2.734375 -13.390625 C 2.734375 -13.753906 2.722656 -14.128906 2.703125 -14.515625 C 2.679688 -14.910156 2.632812 -15.296875 2.5625 -15.671875 C 2.53125 -15.929688 2.335938 -16.238281 1.984375 -16.59375 C 1.628906 -16.945312 1.25 -17.304688 0.84375 -17.671875 C 1.726562 -18.867188 2.773438 -19.941406 3.984375 -20.890625 C 5.191406 -21.835938 6.429688 -22.3125 7.703125 -22.3125 Z M 7.703125 -22.3125 "/></g></g></g><g fill="#f56a10" fill-opacity="1"><g transform="translate(191.640285, 166.562861)"><g><path d="M 5.1875 -14.4375 C 4.289062 -14.4375 3.425781 -14.546875 2.59375 -14.765625 C 1.757812 -14.992188 1.070312 -15.40625 0.53125 -16 C -0.0078125 -16.59375 -0.28125 -17.429688 -0.28125 -18.515625 C -0.28125 -19.585938 0.0507812 -20.488281 0.71875 -21.21875 C 1.394531 -21.945312 2.304688 -22.53125 3.453125 -22.96875 C 4.128906 -22.707031 4.722656 -22.578125 5.234375 -22.578125 L 5.234375 -24.59375 C 5.234375 -25.144531 5.148438 -25.742188 4.984375 -26.390625 C 4.816406 -27.046875 4.363281 -27.691406 3.625 -28.328125 C 4.695312 -29.742188 5.726562 -30.679688 6.71875 -31.140625 C 7.707031 -31.609375 8.832031 -31.84375 10.09375 -31.84375 C 11.164062 -31.84375 12.066406 -31.738281 12.796875 -31.53125 C 13.523438 -31.332031 14.070312 -30.890625 14.4375 -30.203125 C 14.8125 -29.515625 15 -28.425781 15 -26.9375 L 15 -22.578125 L 15.21875 -22.578125 C 15.894531 -22.578125 16.363281 -22.597656 16.625 -22.640625 C 16.882812 -22.679688 17.234375 -22.773438 17.671875 -22.921875 C 18.898438 -22.429688 19.773438 -21.757812 20.296875 -20.90625 C 20.816406 -20.050781 21.078125 -19.253906 21.078125 -18.515625 C 21.078125 -17.023438 20.648438 -15.972656 19.796875 -15.359375 C 18.941406 -14.742188 17.882812 -14.4375 16.625 -14.4375 L 15 -14.4375 L 15 -9.984375 C 15 -8.640625 15.203125 -7.96875 15.609375 -7.96875 C 16.203125 -7.96875 16.628906 -8.097656 16.890625 -8.359375 C 17.148438 -8.617188 17.375 -8.898438 17.5625 -9.203125 C 17.789062 -9.492188 18.015625 -9.742188 18.234375 -9.953125 C 18.453125 -10.160156 18.804688 -10.265625 19.296875 -10.265625 C 20.078125 -10.265625 20.6875 -10.050781 21.125 -9.625 C 21.570312 -9.195312 21.898438 -8.691406 22.109375 -8.109375 C 22.316406 -7.535156 22.421875 -7.007812 22.421875 -6.53125 C 22.421875 -4.332031 21.65625 -2.691406 20.125 -1.609375 C 18.601562 -0.535156 16.578125 0 14.046875 0 C 12.046875 0 10.445312 -0.257812 9.25 -0.78125 C 8.0625 -1.300781 7.171875 -2.015625 6.578125 -2.921875 C 5.984375 -3.835938 5.59375 -4.878906 5.40625 -6.046875 C 5.21875 -7.222656 5.125 -8.441406 5.125 -9.703125 Z M 5.1875 -14.4375 "/></g></g></g><g fill="#f56a10" fill-opacity="1"><g transform="translate(214.333965, 166.562861)"><g/></g></g><g fill="#5794a1" fill-opacity="1"><g transform="translate(224.654574, 166.562861)"><g><path d="M 22.421875 -2.625 C 21.492188 -2.03125 20.617188 -1.734375 19.796875 -1.734375 C 18.972656 -1.734375 18.300781 -1.773438 17.78125 -1.859375 C 17.269531 -1.953125 16.828125 -2.222656 16.453125 -2.671875 L 12.4375 -12.046875 L 12.4375 -5.578125 L 12.546875 -4.90625 C 12.660156 -4.5 12.941406 -4.070312 13.390625 -3.625 C 13.015625 -2.65625 12.601562 -1.898438 12.15625 -1.359375 C 11.707031 -0.828125 11.109375 -0.46875 10.359375 -0.28125 C 9.617188 -0.09375 8.582031 0 7.25 0 C 6.019531 0 4.96875 -0.203125 4.09375 -0.609375 C 3.21875 -1.023438 2.691406 -1.804688 2.515625 -2.953125 L 2.515625 -19.90625 C 2.515625 -21.988281 2.46875 -23.726562 2.375 -25.125 C 2.28125 -26.519531 1.953125 -27.457031 1.390625 -27.9375 C 3.398438 -30.425781 5.59375 -31.671875 7.96875 -31.671875 L 8.203125 -31.671875 C 9.054688 -31.640625 9.78125 -31.445312 10.375 -31.09375 C 10.96875 -30.738281 11.617188 -30.113281 12.328125 -29.21875 L 19.296875 -16.5 L 26.265625 -29.21875 C 26.972656 -30.113281 27.625 -30.738281 28.21875 -31.09375 C 28.8125 -31.445312 29.519531 -31.640625 30.34375 -31.671875 L 30.5625 -31.671875 C 32.9375 -31.671875 35.164062 -30.410156 37.25 -27.890625 C 36.695312 -27.398438 36.351562 -26.691406 36.21875 -25.765625 C 36.09375 -24.835938 35.988281 -23.664062 35.90625 -22.25 C 35.90625 -21.875 35.894531 -21.484375 35.875 -21.078125 C 35.863281 -20.671875 35.859375 -20.28125 35.859375 -19.90625 L 35.859375 -3.171875 C 35.859375 -1.910156 35.429688 -1.066406 34.578125 -0.640625 C 33.722656 -0.210938 32.644531 0 31.34375 0 C 29.632812 0 28.347656 -0.210938 27.484375 -0.640625 C 26.628906 -1.066406 25.960938 -1.910156 25.484375 -3.171875 C 25.554688 -3.328125 25.675781 -3.679688 25.84375 -4.234375 C 26.007812 -4.796875 26.09375 -5.242188 26.09375 -5.578125 L 26.09375 -12.046875 Z M 22.421875 -2.625 "/></g></g></g><g fill="#5794a1" fill-opacity="1"><g transform="translate(263.016367, 166.562861)"><g><path d="M 18.5625 -10.09375 L 14.171875 -10.15625 L 13 -10.15625 L 13 -9.765625 C 13 -8.421875 13.015625 -7.375 13.046875 -6.625 C 13.085938 -5.882812 13.191406 -5.3125 13.359375 -4.90625 C 13.523438 -4.5 13.796875 -4.128906 14.171875 -3.796875 C 12.117188 -1.265625 9.8125 0 7.25 0 C 5.3125 0 4.070312 -0.390625 3.53125 -1.171875 C 3 -1.953125 2.734375 -3.085938 2.734375 -4.578125 L 2.734375 -21.6875 C 2.734375 -22.914062 2.703125 -23.992188 2.640625 -24.921875 C 2.585938 -25.859375 2.394531 -26.546875 2.0625 -26.984375 C 2.914062 -28.066406 4.039062 -28.960938 5.4375 -29.671875 C 6.832031 -30.378906 8.3125 -30.914062 9.875 -31.28125 C 11.4375 -31.65625 12.882812 -31.84375 14.21875 -31.84375 L 16.28125 -31.84375 C 17.507812 -31.84375 18.863281 -31.703125 20.34375 -31.421875 C 21.832031 -31.140625 23.238281 -30.628906 24.5625 -29.890625 C 25.882812 -29.148438 26.972656 -28.085938 27.828125 -26.703125 C 28.679688 -25.328125 29.109375 -23.546875 29.109375 -21.359375 L 29.109375 -19.015625 C 29.109375 -17.753906 28.835938 -16.425781 28.296875 -15.03125 C 27.765625 -13.632812 26.851562 -12.460938 25.5625 -11.515625 C 24.28125 -10.566406 22.488281 -10.09375 20.1875 -10.09375 Z M 19.015625 -20.796875 C 18.972656 -21.460938 18.757812 -21.984375 18.375 -22.359375 C 17.988281 -22.734375 17.125 -22.921875 15.78125 -22.921875 L 15.21875 -22.921875 C 14.851562 -22.921875 14.460938 -22.898438 14.046875 -22.859375 C 13.640625 -22.828125 13.234375 -22.734375 12.828125 -22.578125 L 12.828125 -18.515625 C 13.566406 -18.472656 14.296875 -18.453125 15.015625 -18.453125 C 15.742188 -18.453125 16.238281 -18.453125 16.5 -18.453125 C 17.207031 -18.453125 17.800781 -18.515625 18.28125 -18.640625 C 18.769531 -18.773438 19.015625 -19.160156 19.015625 -19.796875 Z M 19.015625 -20.796875 "/></g></g></g></svg>